<svg xmlns="http://www.w3.org/2000/svg" xmlns:xlink="http://www.w3.org/1999/xlink" width="338" zoomAndPan="magnify" viewBox="0 0 253.5 239.999995" height="320" preserveAspectRatio="xMidYMid meet" version="1.0"><defs><clipPath id="310f42b485"><path d="M 234 0.234375 L 241 0.234375 L 241 6 L 234 6 Z M 234 0.234375 " clip-rule="nonzero"/></clipPath><clipPath id="7ebaea2466"><path d="M 235 222 L 252.625 222 L 252.625 239.601562 L 235 239.601562 Z M 235 222 " clip-rule="nonzero"/></clipPath><clipPath id="133d26544c"><path d="M 234 0.234375 L 241 0.234375 L 241 6 L 234 6 Z M 234 0.234375 " clip-rule="nonzero"/></clipPath><clipPath id="af8d84ae11"><path d="M 235 222 L 252.625 222 L 252.625 239.601562 L 235 239.601562 Z M 235 222 " clip-rule="nonzero"/></clipPath></defs><path fill="#cd9c4f" d="M 235.570312 112.863281 L 235.570312 40.941406 L 239.378906 40.941406 L 239.378906 113.050781 L 239.066406 113.050781 L 237.191406 111.238281 L 236.753906 111.675781 Z M 235.570312 112.863281 " fill-opacity="1" fill-rule="nonzero"/><path fill="#cd9c4f" d="M 148.476562 223.242188 L 148.476562 222.242188 L 235.570312 222.242188 L 235.570312 122.726562 L 237.191406 124.351562 L 239.378906 122.164062 L 239.378906 226.113281 L 148.601562 226.113281 L 149.976562 224.742188 Z M 148.476562 223.242188 " fill-opacity="1" fill-rule="nonzero"/><path fill="#cd9c4f" d="M 138.175781 226.113281 L 134.804688 226.113281 L 134.804688 222.242188 L 139.300781 222.242188 L 138.675781 222.929688 L 136.800781 224.742188 Z M 138.175781 226.113281 " fill-opacity="1" fill-rule="nonzero"/><path fill="#cd9c4f" d="M 125.75 226.113281 L 41.59375 226.113281 L 41.59375 222.304688 L 125.75 222.304688 Z M 125.75 226.113281 " fill-opacity="1" fill-rule="nonzero"/><path fill="#cd9c4f" d="M 134.804688 226.113281 L 134.804688 222.242188 L 154.90625 222.242188 L 152.410156 224.742188 L 153.035156 225.367188 L 153.785156 226.113281 Z M 134.804688 226.113281 " fill-opacity="1" fill-rule="nonzero"/><path fill="#cd9c4f" d="M 125.75 226.113281 L 57.203125 226.113281 L 57.203125 222.304688 L 125.75 222.304688 Z M 125.75 226.113281 " fill-opacity="1" fill-rule="nonzero"/><path fill="#cd9c4f" d="M 228.390625 207.011719 C 229.078125 210.320312 230.136719 213.441406 231.511719 216.4375 C 231.761719 216.9375 232.011719 217.5 232.261719 218 C 232.511719 218.5 232.757812 218.996094 233.070312 219.496094 C 233.257812 219.808594 233.445312 220.058594 233.570312 220.371094 C 233.757812 220.683594 233.945312 220.996094 234.132812 221.308594 C 234.320312 221.621094 234.507812 221.933594 234.757812 222.242188 C 234.757812 222.242188 234.820312 222.304688 234.820312 222.367188 C 235.132812 222.867188 235.507812 223.367188 235.882812 223.867188 C 236.316406 224.492188 236.816406 225.054688 237.253906 225.617188 C 237.316406 225.738281 237.441406 225.800781 237.503906 225.925781 C 237.566406 225.988281 237.628906 226.113281 237.753906 226.175781 L 239.378906 226.175781 L 239.378906 223.679688 C 239.378906 223.679688 239.316406 223.617188 239.316406 223.554688 C 239.128906 223.367188 238.941406 223.117188 238.816406 222.929688 C 238.503906 222.492188 238.191406 222.117188 237.878906 221.683594 C 237.566406 221.246094 237.253906 220.746094 236.941406 220.308594 C 236.566406 219.746094 236.257812 219.246094 235.945312 218.683594 C 235.820312 218.5 235.695312 218.3125 235.570312 218.125 C 235.257812 217.5625 235.007812 217.0625 234.695312 216.5 C 231.949219 211.132812 230.386719 205.011719 230.386719 198.582031 C 230.386719 191.464844 232.261719 184.785156 235.507812 179.042969 C 236.628906 177.105469 237.878906 175.234375 239.316406 173.484375 L 239.316406 169.175781 C 237.941406 170.613281 236.691406 172.171875 235.507812 173.796875 C 230.449219 180.789062 227.515625 189.34375 227.515625 198.644531 C 227.578125 201.390625 227.828125 204.261719 228.390625 207.011719 Z M 228.390625 207.011719 " fill-opacity="1" fill-rule="nonzero"/><path fill="#cd9c4f" d="M 187.621094 226.113281 C 189.371094 224.679688 191.242188 223.429688 193.179688 222.304688 C 198.984375 218.996094 205.664062 217.125 212.71875 217.125 C 218.835938 217.125 224.582031 218.5 229.761719 220.996094 C 230.449219 221.308594 231.136719 221.683594 231.824219 222.058594 C 231.949219 222.117188 232.074219 222.179688 232.199219 222.304688 C 232.636719 222.554688 233.070312 222.804688 233.507812 223.117188 C 233.945312 223.367188 234.382812 223.679688 234.820312 223.992188 C 235.132812 224.242188 235.445312 224.429688 235.757812 224.679688 C 236.195312 224.992188 236.691406 225.367188 237.066406 225.675781 C 237.191406 225.738281 237.253906 225.800781 237.378906 225.925781 C 237.503906 225.988281 237.628906 226.113281 237.691406 226.175781 L 239.253906 226.175781 L 239.253906 223.742188 C 239.191406 223.679688 239.128906 223.679688 239.128906 223.617188 C 238.816406 223.367188 238.566406 223.179688 238.253906 222.929688 C 237.628906 222.492188 237.003906 221.996094 236.378906 221.621094 C 236.070312 221.433594 235.757812 221.183594 235.445312 220.996094 C 235.070312 220.746094 234.757812 220.558594 234.382812 220.308594 C 234.382812 220.308594 234.320312 220.308594 234.320312 220.246094 C 233.882812 219.996094 233.445312 219.746094 232.945312 219.496094 C 232.324219 219.121094 231.699219 218.808594 231.011719 218.5 C 230.574219 218.25 230.074219 218.0625 229.636719 217.875 C 226.578125 216.5 223.269531 215.5625 219.898438 214.9375 C 217.527344 214.503906 215.089844 214.316406 212.59375 214.316406 C 203.355469 214.316406 194.738281 217.3125 187.746094 222.304688 C 186.125 223.492188 184.5625 224.742188 183.125 226.113281 Z M 187.621094 226.113281 " fill-opacity="1" fill-rule="nonzero"/><path fill="#cd9c4f" d="M 238.691406 165.804688 C 238.941406 165.804688 239.128906 165.804688 239.378906 165.804688 L 239.378906 162.933594 C 239.128906 162.933594 238.941406 162.933594 238.691406 162.933594 C 237.628906 162.933594 236.628906 162.996094 235.570312 163.121094 L 235.570312 165.992188 C 236.566406 165.867188 237.628906 165.804688 238.691406 165.804688 Z M 210.222656 199.394531 C 211.78125 205.574219 215.277344 211.007812 220.023438 214.878906 C 222.894531 217.25 226.140625 219.058594 229.761719 220.183594 C 230.386719 220.371094 231.011719 220.558594 231.636719 220.746094 C 232.261719 220.933594 232.882812 221.058594 233.570312 221.121094 C 233.757812 221.183594 233.945312 221.183594 234.132812 221.246094 C 234.320312 221.246094 234.445312 221.308594 234.632812 221.308594 C 234.945312 221.371094 235.257812 221.371094 235.507812 221.433594 C 235.820312 221.433594 236.132812 221.496094 236.441406 221.496094 C 236.878906 221.558594 237.316406 221.558594 237.816406 221.558594 C 238.066406 221.558594 238.378906 221.558594 238.628906 221.558594 C 238.878906 221.558594 239.128906 221.558594 239.316406 221.558594 L 239.316406 218.683594 C 239.066406 218.683594 238.878906 218.683594 238.628906 218.683594 C 237.691406 218.683594 236.753906 218.621094 235.882812 218.558594 C 235.757812 218.558594 235.632812 218.558594 235.507812 218.5 C 235.007812 218.4375 234.507812 218.375 234.007812 218.3125 C 233.382812 218.1875 232.820312 218.0625 232.199219 217.9375 C 231.761719 217.8125 231.261719 217.6875 230.824219 217.5625 C 230.449219 217.4375 230.074219 217.3125 229.699219 217.1875 C 221.898438 214.378906 215.777344 208.070312 213.34375 200.144531 C 213.03125 199.144531 212.78125 198.082031 212.59375 197.023438 C 211.59375 196.773438 210.597656 196.585938 209.597656 196.460938 C 209.785156 197.394531 209.972656 198.394531 210.222656 199.394531 Z M 210.222656 199.394531 " fill-opacity="1" fill-rule="nonzero"/><path fill="#cd9c4f" d="M 176.320312 226.113281 L 179.191406 226.113281 C 179.191406 225.925781 179.191406 225.675781 179.191406 225.492188 C 179.191406 224.429688 179.253906 223.367188 179.378906 222.304688 L 176.507812 222.304688 C 176.382812 223.367188 176.320312 224.429688 176.320312 225.492188 C 176.320312 225.675781 176.320312 225.863281 176.320312 226.113281 Z M 210.222656 199.394531 C 210.222656 199.394531 210.285156 199.394531 210.222656 199.394531 C 211.34375 199.582031 212.40625 199.832031 213.40625 200.144531 C 221.335938 202.578125 227.703125 208.632812 230.511719 216.375 C 230.636719 216.75 230.824219 217.1875 230.949219 217.5625 C 231.074219 217.875 231.136719 218.125 231.199219 218.4375 C 231.386719 219.183594 231.574219 219.933594 231.699219 220.746094 C 231.761719 221.183594 231.824219 221.621094 231.886719 222.058594 C 231.886719 222.117188 231.886719 222.179688 231.886719 222.304688 C 232.011719 223.367188 232.074219 224.429688 232.074219 225.492188 C 232.074219 225.675781 232.074219 225.925781 232.074219 226.113281 L 234.945312 226.113281 C 234.945312 225.925781 234.945312 225.675781 234.945312 225.492188 C 234.945312 224.992188 234.945312 224.429688 234.882812 223.929688 C 234.882812 223.367188 234.820312 222.804688 234.757812 222.304688 C 234.757812 222.304688 234.757812 222.242188 234.757812 222.179688 C 234.695312 221.871094 234.695312 221.621094 234.632812 221.371094 C 234.570312 220.996094 234.507812 220.621094 234.445312 220.308594 C 234.445312 220.308594 234.445312 220.308594 234.445312 220.246094 C 234.320312 219.621094 234.195312 218.996094 234.070312 218.375 C 233.882812 217.6875 233.695312 217.0625 233.507812 216.4375 C 232.386719 213.003906 230.636719 209.820312 228.390625 207.011719 C 224.457031 202.140625 218.960938 198.519531 212.65625 196.960938 C 211.65625 196.710938 210.660156 196.523438 209.660156 196.398438 C 209.785156 197.394531 209.972656 198.394531 210.222656 199.394531 Z M 210.222656 199.394531 " fill-opacity="1" fill-rule="nonzero"/><path fill="#cd9c4f" d="M 239.378906 226.113281 L 239.378906 223.492188 C 239.378906 223.492188 239.316406 223.492188 239.316406 223.554688 C 239.316406 223.554688 239.253906 223.554688 239.253906 223.617188 C 238.503906 224.117188 237.816406 224.804688 237.253906 225.617188 C 237.253906 225.617188 237.191406 225.675781 237.191406 225.675781 C 237.066406 225.800781 237.003906 225.988281 236.878906 226.175781 L 239.378906 226.175781 Z M 239.378906 226.113281 " fill-opacity="1" fill-rule="nonzero"/><path fill="#cd9c4f" d="M 234.820312 29.265625 C 234.820312 28.917969 234.886719 28.585938 235.019531 28.261719 C 235.152344 27.941406 235.34375 27.660156 235.589844 27.414062 C 235.832031 27.167969 236.117188 26.976562 236.4375 26.84375 C 236.761719 26.710938 237.09375 26.644531 237.441406 26.644531 C 237.789062 26.644531 238.125 26.710938 238.445312 26.84375 C 238.765625 26.976562 239.050781 27.167969 239.296875 27.414062 C 239.542969 27.660156 239.730469 27.941406 239.863281 28.261719 C 239.996094 28.585938 240.0625 28.917969 240.0625 29.265625 C 240.0625 29.613281 239.996094 29.949219 239.863281 30.269531 C 239.730469 30.589844 239.542969 30.875 239.296875 31.121094 C 239.050781 31.367188 238.765625 31.554688 238.445312 31.691406 C 238.125 31.824219 237.789062 31.890625 237.441406 31.890625 C 237.09375 31.890625 236.761719 31.824219 236.4375 31.691406 C 236.117188 31.554688 235.832031 31.367188 235.589844 31.121094 C 235.34375 30.875 235.152344 30.589844 235.019531 30.269531 C 234.886719 29.949219 234.820312 29.613281 234.820312 29.265625 Z M 234.820312 29.265625 " fill-opacity="1" fill-rule="nonzero"/><path fill="#cd9c4f" d="M 234.820312 16.03125 C 234.820312 15.683594 234.886719 15.347656 235.019531 15.027344 C 235.152344 14.707031 235.34375 14.421875 235.589844 14.175781 C 235.832031 13.929688 236.117188 13.742188 236.4375 13.609375 C 236.761719 13.476562 237.09375 13.410156 237.441406 13.410156 C 237.789062 13.410156 238.125 13.476562 238.445312 13.609375 C 238.765625 13.742188 239.050781 13.929688 239.296875 14.175781 C 239.542969 14.421875 239.730469 14.707031 239.863281 15.027344 C 239.996094 15.347656 240.0625 15.683594 240.0625 16.03125 C 240.0625 16.378906 239.996094 16.714844 239.863281 17.035156 C 239.730469 17.355469 239.542969 17.640625 239.296875 17.886719 C 239.050781 18.132812 238.765625 18.320312 238.445312 18.453125 C 238.125 18.585938 237.789062 18.652344 237.441406 18.652344 C 237.09375 18.652344 236.761719 18.585938 236.4375 18.453125 C 236.117188 18.320312 235.832031 18.132812 235.589844 17.886719 C 235.34375 17.640625 235.152344 17.355469 235.019531 17.035156 C 234.886719 16.714844 234.820312 16.378906 234.820312 16.03125 Z M 234.820312 16.03125 " fill-opacity="1" fill-rule="nonzero"/><g clip-path="url(#310f42b485)"><path fill="#cd9c4f" d="M 234.820312 2.859375 C 234.820312 2.511719 234.886719 2.175781 235.019531 1.855469 C 235.152344 1.535156 235.34375 1.25 235.589844 1.003906 C 235.832031 0.757812 236.117188 0.570312 236.4375 0.4375 C 236.761719 0.304688 237.09375 0.234375 237.441406 0.234375 C 237.789062 0.234375 238.125 0.304688 238.445312 0.4375 C 238.765625 0.570312 239.050781 0.757812 239.296875 1.003906 C 239.542969 1.25 239.730469 1.535156 239.863281 1.855469 C 239.996094 2.175781 240.0625 2.511719 240.0625 2.859375 C 240.0625 3.207031 239.996094 3.539062 239.863281 3.863281 C 239.730469 4.183594 239.542969 4.464844 239.296875 4.710938 C 239.050781 4.957031 238.765625 5.148438 238.445312 5.28125 C 238.125 5.414062 237.789062 5.480469 237.441406 5.480469 C 237.09375 5.480469 236.761719 5.414062 236.4375 5.28125 C 236.117188 5.148438 235.832031 4.957031 235.589844 4.710938 C 235.34375 4.464844 235.152344 4.183594 235.019531 3.863281 C 234.886719 3.539062 234.820312 3.207031 234.820312 2.859375 Z M 234.820312 2.859375 " fill-opacity="1" fill-rule="nonzero"/></g><path fill="#cd9c4f" d="M 0.015625 224.179688 C 0.015625 223.832031 0.0820312 223.496094 0.214844 223.175781 C 0.347656 222.855469 0.535156 222.570312 0.78125 222.324219 C 1.027344 222.078125 1.3125 221.890625 1.632812 221.757812 C 1.953125 221.625 2.289062 221.558594 2.636719 221.558594 C 2.984375 221.558594 3.316406 221.625 3.640625 221.757812 C 3.960938 221.890625 4.242188 222.078125 4.488281 222.324219 C 4.734375 222.570312 4.925781 222.855469 5.058594 223.175781 C 5.191406 223.496094 5.257812 223.832031 5.257812 224.179688 C 5.257812 224.527344 5.191406 224.863281 5.058594 225.183594 C 4.925781 225.503906 4.734375 225.789062 4.488281 226.035156 C 4.242188 226.28125 3.960938 226.46875 3.640625 226.601562 C 3.316406 226.734375 2.984375 226.800781 2.636719 226.800781 C 2.289062 226.800781 1.953125 226.734375 1.632812 226.601562 C 1.3125 226.46875 1.027344 226.28125 0.78125 226.035156 C 0.535156 225.789062 0.347656 225.503906 0.214844 225.183594 C 0.0820312 224.863281 0.015625 224.527344 0.015625 224.179688 Z M 0.015625 224.179688 " fill-opacity="1" fill-rule="nonzero"/><path fill="#cd9c4f" d="M 13.25 224.179688 C 13.25 223.832031 13.316406 223.496094 13.449219 223.175781 C 13.582031 222.855469 13.769531 222.570312 14.015625 222.324219 C 14.261719 222.078125 14.546875 221.890625 14.867188 221.757812 C 15.1875 221.625 15.523438 221.558594 15.871094 221.558594 C 16.21875 221.558594 16.554688 221.625 16.875 221.757812 C 17.195312 221.890625 17.480469 222.078125 17.726562 222.324219 C 17.972656 222.570312 18.160156 222.855469 18.292969 223.175781 C 18.425781 223.496094 18.492188 223.832031 18.492188 224.179688 C 18.492188 224.527344 18.425781 224.863281 18.292969 225.183594 C 18.160156 225.503906 17.972656 225.789062 17.726562 226.035156 C 17.480469 226.28125 17.195312 226.46875 16.875 226.601562 C 16.554688 226.734375 16.21875 226.800781 15.871094 226.800781 C 15.523438 226.800781 15.1875 226.734375 14.867188 226.601562 C 14.546875 226.46875 14.261719 226.28125 14.015625 226.035156 C 13.769531 225.789062 13.582031 225.503906 13.449219 225.183594 C 13.316406 224.863281 13.25 224.527344 13.25 224.179688 Z M 13.25 224.179688 " fill-opacity="1" fill-rule="nonzero"/><path fill="#cd9c4f" d="M 26.421875 224.179688 C 26.421875 223.832031 26.488281 223.496094 26.621094 223.175781 C 26.753906 222.855469 26.945312 222.570312 27.191406 222.324219 C 27.4375 222.078125 27.71875 221.890625 28.042969 221.757812 C 28.363281 221.625 28.695312 221.558594 29.042969 221.558594 C 29.390625 221.558594 29.726562 221.625 30.046875 221.757812 C 30.371094 221.890625 30.652344 222.078125 30.898438 222.324219 C 31.144531 222.570312 31.335938 222.855469 31.46875 223.175781 C 31.601562 223.496094 31.667969 223.832031 31.667969 224.179688 C 31.667969 224.527344 31.601562 224.863281 31.46875 225.183594 C 31.335938 225.503906 31.144531 225.789062 30.898438 226.035156 C 30.652344 226.28125 30.371094 226.46875 30.046875 226.601562 C 29.726562 226.734375 29.390625 226.800781 29.042969 226.800781 C 28.695312 226.800781 28.363281 226.734375 28.042969 226.601562 C 27.71875 226.46875 27.4375 226.28125 27.191406 226.035156 C 26.945312 225.789062 26.753906 225.503906 26.621094 225.183594 C 26.488281 224.863281 26.421875 224.527344 26.421875 224.179688 Z M 26.421875 224.179688 " fill-opacity="1" fill-rule="nonzero"/><g clip-path="url(#7ebaea2466)"><path fill="#cd9c4f" d="M 252.613281 239.601562 L 252.613281 222.867188 L 235.882812 222.867188 L 235.882812 239.601562 Z M 239.691406 226.675781 L 248.804688 226.675781 L 248.804688 235.792969 L 239.691406 235.792969 Z M 239.691406 226.675781 " fill-opacity="1" fill-rule="nonzero"/></g><path fill="#cd9c4f" d="M 246.496094 233.167969 L 246.496094 216.4375 L 229.761719 216.4375 L 229.761719 233.167969 Z M 242.6875 220.246094 L 242.6875 229.296875 L 233.570312 229.296875 L 233.570312 220.246094 Z M 242.6875 220.246094 " fill-opacity="1" fill-rule="nonzero"/><path fill="#cd9c4f" d="M 245.808594 125.972656 L 245.808594 109.242188 L 229.078125 109.242188 L 229.078125 125.972656 Z M 232.945312 113.050781 L 242 113.050781 L 242 122.164062 L 232.882812 122.164062 L 232.882812 113.050781 Z M 232.945312 113.050781 " fill-opacity="1" fill-rule="nonzero"/><path fill="#cd9c4f" d="M 138.675781 232.546875 L 138.675781 215.8125 L 121.941406 215.8125 L 121.941406 232.546875 Z M 125.75 219.621094 L 134.867188 219.621094 L 134.867188 228.738281 L 125.75 228.738281 Z M 125.75 219.621094 " fill-opacity="1" fill-rule="nonzero"/><path fill="#cd9c4f" d="M 245.183594 214.9375 L 243.25 214.9375 L 243.25 128.660156 L 245.183594 128.660156 Z M 245.183594 214.9375 " fill-opacity="1" fill-rule="nonzero"/><path fill="#cd9c4f" d="M 227.578125 231.234375 L 141.296875 231.234375 L 141.296875 229.296875 L 227.578125 229.296875 Z M 227.578125 231.234375 " fill-opacity="1" fill-rule="nonzero"/><path fill="#cd9c4f" d="M 235.570312 112.863281 L 235.570312 40.941406 L 239.378906 40.941406 L 239.378906 113.050781 L 239.066406 113.050781 L 237.191406 111.238281 L 236.753906 111.675781 Z M 235.570312 112.863281 " fill-opacity="1" fill-rule="nonzero"/><path fill="#cd9c4f" d="M 148.476562 223.242188 L 148.476562 222.242188 L 235.570312 222.242188 L 235.570312 122.726562 L 237.191406 124.351562 L 239.378906 122.164062 L 239.378906 226.113281 L 148.601562 226.113281 L 149.976562 224.742188 Z M 148.476562 223.242188 " fill-opacity="1" fill-rule="nonzero"/><path fill="#cd9c4f" d="M 138.175781 226.113281 L 134.804688 226.113281 L 134.804688 222.242188 L 139.300781 222.242188 L 138.675781 222.929688 L 136.800781 224.742188 Z M 138.175781 226.113281 " fill-opacity="1" fill-rule="nonzero"/><path fill="#cd9c4f" d="M 125.75 226.113281 L 41.59375 226.113281 L 41.59375 222.304688 L 125.75 222.304688 Z M 125.75 226.113281 " fill-opacity="1" fill-rule="nonzero"/><path fill="#cd9c4f" d="M 134.804688 226.113281 L 134.804688 222.242188 L 154.90625 222.242188 L 152.410156 224.742188 L 153.035156 225.367188 L 153.785156 226.113281 Z M 134.804688 226.113281 " fill-opacity="1" fill-rule="nonzero"/><path fill="#cd9c4f" d="M 125.75 226.113281 L 57.203125 226.113281 L 57.203125 222.304688 L 125.75 222.304688 Z M 125.75 226.113281 " fill-opacity="1" fill-rule="nonzero"/><path fill="#cd9c4f" d="M 228.390625 207.011719 C 229.078125 210.320312 230.136719 213.441406 231.511719 216.4375 C 231.761719 216.9375 232.011719 217.5 232.261719 218 C 232.511719 218.5 232.757812 218.996094 233.070312 219.496094 C 233.257812 219.808594 233.445312 220.058594 233.570312 220.371094 C 233.757812 220.683594 233.945312 220.996094 234.132812 221.308594 C 234.320312 221.621094 234.507812 221.933594 234.757812 222.242188 C 234.757812 222.242188 234.820312 222.304688 234.820312 222.367188 C 235.132812 222.867188 235.507812 223.367188 235.882812 223.867188 C 236.316406 224.492188 236.816406 225.054688 237.253906 225.617188 C 237.316406 225.738281 237.441406 225.800781 237.503906 225.925781 C 237.566406 225.988281 237.628906 226.113281 237.753906 226.175781 L 239.378906 226.175781 L 239.378906 223.679688 C 239.378906 223.679688 239.316406 223.617188 239.316406 223.554688 C 239.128906 223.367188 238.941406 223.117188 238.816406 222.929688 C 238.503906 222.492188 238.191406 222.117188 237.878906 221.683594 C 237.566406 221.246094 237.253906 220.746094 236.941406 220.308594 C 236.566406 219.746094 236.257812 219.246094 235.945312 218.683594 C 235.820312 218.5 235.695312 218.3125 235.570312 218.125 C 235.257812 217.5625 235.007812 217.0625 234.695312 216.5 C 231.949219 211.132812 230.386719 205.011719 230.386719 198.582031 C 230.386719 191.464844 232.261719 184.785156 235.507812 179.042969 C 236.628906 177.105469 237.878906 175.234375 239.316406 173.484375 L 239.316406 169.175781 C 237.941406 170.613281 236.691406 172.171875 235.507812 173.796875 C 230.449219 180.789062 227.515625 189.34375 227.515625 198.644531 C 227.578125 201.390625 227.828125 204.261719 228.390625 207.011719 Z M 228.390625 207.011719 " fill-opacity="1" fill-rule="nonzero"/><path fill="#cd9c4f" d="M 187.621094 226.113281 C 189.371094 224.679688 191.242188 223.429688 193.179688 222.304688 C 198.984375 218.996094 205.664062 217.125 212.71875 217.125 C 218.835938 217.125 224.582031 218.5 229.761719 220.996094 C 230.449219 221.308594 231.136719 221.683594 231.824219 222.058594 C 231.949219 222.117188 232.074219 222.179688 232.199219 222.304688 C 232.636719 222.554688 233.070312 222.804688 233.507812 223.117188 C 233.945312 223.367188 234.382812 223.679688 234.820312 223.992188 C 235.132812 224.242188 235.445312 224.429688 235.757812 224.679688 C 236.195312 224.992188 236.691406 225.367188 237.066406 225.675781 C 237.191406 225.738281 237.253906 225.800781 237.378906 225.925781 C 237.503906 225.988281 237.628906 226.113281 237.691406 226.175781 L 239.253906 226.175781 L 239.253906 223.742188 C 239.191406 223.679688 239.128906 223.679688 239.128906 223.617188 C 238.816406 223.367188 238.566406 223.179688 238.253906 222.929688 C 237.628906 222.492188 237.003906 221.996094 236.378906 221.621094 C 236.070312 221.433594 235.757812 221.183594 235.445312 220.996094 C 235.070312 220.746094 234.757812 220.558594 234.382812 220.308594 C 234.382812 220.308594 234.320312 220.308594 234.320312 220.246094 C 233.882812 219.996094 233.445312 219.746094 232.945312 219.496094 C 232.324219 219.121094 231.699219 218.808594 231.011719 218.5 C 230.574219 218.25 230.074219 218.0625 229.636719 217.875 C 226.578125 216.5 223.269531 215.5625 219.898438 214.9375 C 217.527344 214.503906 215.089844 214.316406 212.59375 214.316406 C 203.355469 214.316406 194.738281 217.3125 187.746094 222.304688 C 186.125 223.492188 184.5625 224.742188 183.125 226.113281 Z M 187.621094 226.113281 " fill-opacity="1" fill-rule="nonzero"/><path fill="#cd9c4f" d="M 238.691406 165.804688 C 238.941406 165.804688 239.128906 165.804688 239.378906 165.804688 L 239.378906 162.933594 C 239.128906 162.933594 238.941406 162.933594 238.691406 162.933594 C 237.628906 162.933594 236.628906 162.996094 235.570312 163.121094 L 235.570312 165.992188 C 236.566406 165.867188 237.628906 165.804688 238.691406 165.804688 Z M 210.222656 199.394531 C 211.78125 205.574219 215.277344 211.007812 220.023438 214.878906 C 222.894531 217.25 226.140625 219.058594 229.761719 220.183594 C 230.386719 220.371094 231.011719 220.558594 231.636719 220.746094 C 232.261719 220.933594 232.882812 221.058594 233.570312 221.121094 C 233.757812 221.183594 233.945312 221.183594 234.132812 221.246094 C 234.320312 221.246094 234.445312 221.308594 234.632812 221.308594 C 234.945312 221.371094 235.257812 221.371094 235.507812 221.433594 C 235.820312 221.433594 236.132812 221.496094 236.441406 221.496094 C 236.878906 221.558594 237.316406 221.558594 237.816406 221.558594 C 238.066406 221.558594 238.378906 221.558594 238.628906 221.558594 C 238.878906 221.558594 239.128906 221.558594 239.316406 221.558594 L 239.316406 218.683594 C 239.066406 218.683594 238.878906 218.683594 238.628906 218.683594 C 237.691406 218.683594 236.753906 218.621094 235.882812 218.558594 C 235.757812 218.558594 235.632812 218.558594 235.507812 218.5 C 235.007812 218.4375 234.507812 218.375 234.007812 218.3125 C 233.382812 218.1875 232.820312 218.0625 232.199219 217.9375 C 231.761719 217.8125 231.261719 217.6875 230.824219 217.5625 C 230.449219 217.4375 230.074219 217.3125 229.699219 217.1875 C 221.898438 214.378906 215.777344 208.070312 213.34375 200.144531 C 213.03125 199.144531 212.78125 198.082031 212.59375 197.023438 C 211.59375 196.773438 210.597656 196.585938 209.597656 196.460938 C 209.785156 197.394531 209.972656 198.394531 210.222656 199.394531 Z M 210.222656 199.394531 " fill-opacity="1" fill-rule="nonzero"/><path fill="#cd9c4f" d="M 176.320312 226.113281 L 179.191406 226.113281 C 179.191406 225.925781 179.191406 225.675781 179.191406 225.492188 C 179.191406 224.429688 179.253906 223.367188 179.378906 222.304688 L 176.507812 222.304688 C 176.382812 223.367188 176.320312 224.429688 176.320312 225.492188 C 176.320312 225.675781 176.320312 225.863281 176.320312 226.113281 Z M 210.222656 199.394531 C 210.222656 199.394531 210.285156 199.394531 210.222656 199.394531 C 211.34375 199.582031 212.40625 199.832031 213.40625 200.144531 C 221.335938 202.578125 227.703125 208.632812 230.511719 216.375 C 230.636719 216.75 230.824219 217.1875 230.949219 217.5625 C 231.074219 217.875 231.136719 218.125 231.199219 218.4375 C 231.386719 219.183594 231.574219 219.933594 231.699219 220.746094 C 231.761719 221.183594 231.824219 221.621094 231.886719 222.058594 C 231.886719 222.117188 231.886719 222.179688 231.886719 222.304688 C 232.011719 223.367188 232.074219 224.429688 232.074219 225.492188 C 232.074219 225.675781 232.074219 225.925781 232.074219 226.113281 L 234.945312 226.113281 C 234.945312 225.925781 234.945312 225.675781 234.945312 225.492188 C 234.945312 224.992188 234.945312 224.429688 234.882812 223.929688 C 234.882812 223.367188 234.820312 222.804688 234.757812 222.304688 C 234.757812 222.304688 234.757812 222.242188 234.757812 222.179688 C 234.695312 221.871094 234.695312 221.621094 234.632812 221.371094 C 234.570312 220.996094 234.507812 220.621094 234.445312 220.308594 C 234.445312 220.308594 234.445312 220.308594 234.445312 220.246094 C 234.320312 219.621094 234.195312 218.996094 234.070312 218.375 C 233.882812 217.6875 233.695312 217.0625 233.507812 216.4375 C 232.386719 213.003906 230.636719 209.820312 228.390625 207.011719 C 224.457031 202.140625 218.960938 198.519531 212.65625 196.960938 C 211.65625 196.710938 210.660156 196.523438 209.660156 196.398438 C 209.785156 197.394531 209.972656 198.394531 210.222656 199.394531 Z M 210.222656 199.394531 " fill-opacity="1" fill-rule="nonzero"/><path fill="#cd9c4f" d="M 239.378906 226.113281 L 239.378906 223.492188 C 239.378906 223.492188 239.316406 223.492188 239.316406 223.554688 C 239.316406 223.554688 239.253906 223.554688 239.253906 223.617188 C 238.503906 224.117188 237.816406 224.804688 237.253906 225.617188 C 237.253906 225.617188 237.191406 225.675781 237.191406 225.675781 C 237.066406 225.800781 237.003906 225.988281 236.878906 226.175781 L 239.378906 226.175781 Z M 239.378906 226.113281 " fill-opacity="1" fill-rule="nonzero"/><path fill="#cd9c4f" d="M 234.820312 29.265625 C 234.820312 28.917969 234.886719 28.585938 235.019531 28.261719 C 235.152344 27.941406 235.34375 27.660156 235.589844 27.414062 C 235.832031 27.167969 236.117188 26.976562 236.4375 26.84375 C 236.761719 26.710938 237.09375 26.644531 237.441406 26.644531 C 237.789062 26.644531 238.125 26.710938 238.445312 26.84375 C 238.765625 26.976562 239.050781 27.167969 239.296875 27.414062 C 239.542969 27.660156 239.730469 27.941406 239.863281 28.261719 C 239.996094 28.585938 240.0625 28.917969 240.0625 29.265625 C 240.0625 29.613281 239.996094 29.949219 239.863281 30.269531 C 239.730469 30.589844 239.542969 30.875 239.296875 31.121094 C 239.050781 31.367188 238.765625 31.554688 238.445312 31.691406 C 238.125 31.824219 237.789062 31.890625 237.441406 31.890625 C 237.09375 31.890625 236.761719 31.824219 236.4375 31.691406 C 236.117188 31.554688 235.832031 31.367188 235.589844 31.121094 C 235.34375 30.875 235.152344 30.589844 235.019531 30.269531 C 234.886719 29.949219 234.820312 29.613281 234.820312 29.265625 Z M 234.820312 29.265625 " fill-opacity="1" fill-rule="nonzero"/><path fill="#cd9c4f" d="M 234.820312 16.03125 C 234.820312 15.683594 234.886719 15.347656 235.019531 15.027344 C 235.152344 14.707031 235.34375 14.421875 235.589844 14.175781 C 235.832031 13.929688 236.117188 13.742188 236.4375 13.609375 C 236.761719 13.476562 237.09375 13.410156 237.441406 13.410156 C 237.789062 13.410156 238.125 13.476562 238.445312 13.609375 C 238.765625 13.742188 239.050781 13.929688 239.296875 14.175781 C 239.542969 14.421875 239.730469 14.707031 239.863281 15.027344 C 239.996094 15.347656 240.0625 15.683594 240.0625 16.03125 C 240.0625 16.378906 239.996094 16.714844 239.863281 17.035156 C 239.730469 17.355469 239.542969 17.640625 239.296875 17.886719 C 239.050781 18.132812 238.765625 18.320312 238.445312 18.453125 C 238.125 18.585938 237.789062 18.652344 237.441406 18.652344 C 237.09375 18.652344 236.761719 18.585938 236.4375 18.453125 C 236.117188 18.320312 235.832031 18.132812 235.589844 17.886719 C 235.34375 17.640625 235.152344 17.355469 235.019531 17.035156 C 234.886719 16.714844 234.820312 16.378906 234.820312 16.03125 Z M 234.820312 16.03125 " fill-opacity="1" fill-rule="nonzero"/><g clip-path="url(#133d26544c)"><path fill="#cd9c4f" d="M 234.820312 2.859375 C 234.820312 2.511719 234.886719 2.175781 235.019531 1.855469 C 235.152344 1.535156 235.34375 1.25 235.589844 1.003906 C 235.832031 0.757812 236.117188 0.570312 236.4375 0.4375 C 236.761719 0.304688 237.09375 0.234375 237.441406 0.234375 C 237.789062 0.234375 238.125 0.304688 238.445312 0.4375 C 238.765625 0.570312 239.050781 0.757812 239.296875 1.003906 C 239.542969 1.25 239.730469 1.535156 239.863281 1.855469 C 239.996094 2.175781 240.0625 2.511719 240.0625 2.859375 C 240.0625 3.207031 239.996094 3.539062 239.863281 3.863281 C 239.730469 4.183594 239.542969 4.464844 239.296875 4.710938 C 239.050781 4.957031 238.765625 5.148438 238.445312 5.28125 C 238.125 5.414062 237.789062 5.480469 237.441406 5.480469 C 237.09375 5.480469 236.761719 5.414062 236.4375 5.28125 C 236.117188 5.148438 235.832031 4.957031 235.589844 4.710938 C 235.34375 4.464844 235.152344 4.183594 235.019531 3.863281 C 234.886719 3.539062 234.820312 3.207031 234.820312 2.859375 Z M 234.820312 2.859375 " fill-opacity="1" fill-rule="nonzero"/></g><path fill="#cd9c4f" d="M 0.015625 224.179688 C 0.015625 223.832031 0.0820312 223.496094 0.214844 223.175781 C 0.347656 222.855469 0.535156 222.570312 0.78125 222.324219 C 1.027344 222.078125 1.3125 221.890625 1.632812 221.757812 C 1.953125 221.625 2.289062 221.558594 2.636719 221.558594 C 2.984375 221.558594 3.316406 221.625 3.640625 221.757812 C 3.960938 221.890625 4.242188 222.078125 4.488281 222.324219 C 4.734375 222.570312 4.925781 222.855469 5.058594 223.175781 C 5.191406 223.496094 5.257812 223.832031 5.257812 224.179688 C 5.257812 224.527344 5.191406 224.863281 5.058594 225.183594 C 4.925781 225.503906 4.734375 225.789062 4.488281 226.035156 C 4.242188 226.28125 3.960938 226.46875 3.640625 226.601562 C 3.316406 226.734375 2.984375 226.800781 2.636719 226.800781 C 2.289062 226.800781 1.953125 226.734375 1.632812 226.601562 C 1.3125 226.46875 1.027344 226.28125 0.78125 226.035156 C 0.535156 225.789062 0.347656 225.503906 0.214844 225.183594 C 0.0820312 224.863281 0.015625 224.527344 0.015625 224.179688 Z M 0.015625 224.179688 " fill-opacity="1" fill-rule="nonzero"/><path fill="#cd9c4f" d="M 13.25 224.179688 C 13.25 223.832031 13.316406 223.496094 13.449219 223.175781 C 13.582031 222.855469 13.769531 222.570312 14.015625 222.324219 C 14.261719 222.078125 14.546875 221.890625 14.867188 221.757812 C 15.1875 221.625 15.523438 221.558594 15.871094 221.558594 C 16.21875 221.558594 16.554688 221.625 16.875 221.757812 C 17.195312 221.890625 17.480469 222.078125 17.726562 222.324219 C 17.972656 222.570312 18.160156 222.855469 18.292969 223.175781 C 18.425781 223.496094 18.492188 223.832031 18.492188 224.179688 C 18.492188 224.527344 18.425781 224.863281 18.292969 225.183594 C 18.160156 225.503906 17.972656 225.789062 17.726562 226.035156 C 17.480469 226.28125 17.195312 226.46875 16.875 226.601562 C 16.554688 226.734375 16.21875 226.800781 15.871094 226.800781 C 15.523438 226.800781 15.1875 226.734375 14.867188 226.601562 C 14.546875 226.46875 14.261719 226.28125 14.015625 226.035156 C 13.769531 225.789062 13.582031 225.503906 13.449219 225.183594 C 13.316406 224.863281 13.25 224.527344 13.25 224.179688 Z M 13.25 224.179688 " fill-opacity="1" fill-rule="nonzero"/><path fill="#cd9c4f" d="M 26.421875 224.179688 C 26.421875 223.832031 26.488281 223.496094 26.621094 223.175781 C 26.753906 222.855469 26.945312 222.570312 27.191406 222.324219 C 27.4375 222.078125 27.71875 221.890625 28.042969 221.757812 C 28.363281 221.625 28.695312 221.558594 29.042969 221.558594 C 29.390625 221.558594 29.726562 221.625 30.046875 221.757812 C 30.371094 221.890625 30.652344 222.078125 30.898438 222.324219 C 31.144531 222.570312 31.335938 222.855469 31.46875 223.175781 C 31.601562 223.496094 31.667969 223.832031 31.667969 224.179688 C 31.667969 224.527344 31.601562 224.863281 31.46875 225.183594 C 31.335938 225.503906 31.144531 225.789062 30.898438 226.035156 C 30.652344 226.28125 30.371094 226.46875 30.046875 226.601562 C 29.726562 226.734375 29.390625 226.800781 29.042969 226.800781 C 28.695312 226.800781 28.363281 226.734375 28.042969 226.601562 C 27.71875 226.46875 27.4375 226.28125 27.191406 226.035156 C 26.945312 225.789062 26.753906 225.503906 26.621094 225.183594 C 26.488281 224.863281 26.421875 224.527344 26.421875 224.179688 Z M 26.421875 224.179688 " fill-opacity="1" fill-rule="nonzero"/><g clip-path="url(#af8d84ae11)"><path fill="#cd9c4f" d="M 252.613281 239.601562 L 252.613281 222.867188 L 235.882812 222.867188 L 235.882812 239.601562 Z M 239.691406 226.675781 L 248.804688 226.675781 L 248.804688 235.792969 L 239.691406 235.792969 Z M 239.691406 226.675781 " fill-opacity="1" fill-rule="nonzero"/></g><path fill="#cd9c4f" d="M 246.496094 233.167969 L 246.496094 216.4375 L 229.761719 216.4375 L 229.761719 233.167969 Z M 242.6875 220.246094 L 242.6875 229.296875 L 233.570312 229.296875 L 233.570312 220.246094 Z M 242.6875 220.246094 " fill-opacity="1" fill-rule="nonzero"/><path fill="#cd9c4f" d="M 245.808594 125.972656 L 245.808594 109.242188 L 229.078125 109.242188 L 229.078125 125.972656 Z M 232.945312 113.050781 L 242 113.050781 L 242 122.164062 L 232.882812 122.164062 L 232.882812 113.050781 Z M 232.945312 113.050781 " fill-opacity="1" fill-rule="nonzero"/><path fill="#cd9c4f" d="M 138.675781 232.546875 L 138.675781 215.8125 L 121.941406 215.8125 L 121.941406 232.546875 Z M 125.75 219.621094 L 134.867188 219.621094 L 134.867188 228.738281 L 125.75 228.738281 Z M 125.75 219.621094 " fill-opacity="1" fill-rule="nonzero"/><path fill="#cd9c4f" d="M 245.183594 214.9375 L 243.25 214.9375 L 243.25 128.660156 L 245.183594 128.660156 Z M 245.183594 214.9375 " fill-opacity="1" fill-rule="nonzero"/><path fill="#cd9c4f" d="M 227.578125 231.234375 L 141.296875 231.234375 L 141.296875 229.296875 L 227.578125 229.296875 Z M 227.578125 231.234375 " fill-opacity="1" fill-rule="nonzero"/></svg>