<svg width="191" height="62" viewBox="0 0 191 62" fill="none" xmlns="http://www.w3.org/2000/svg">
<path d="M84.646 51.8073L70.3022 60.474V48.6563L39.1668 55.3698V46.4375L8.88037 49.6146V41.9531L0.536621 42.4427V18.0469L8.88037 18.5104V10.8542L39.1668 14.0365V5.10417L70.3075 11.8177V0L84.6512 8.65104C87.6512 7.27604 91.0002 6.52083 94.521 6.52083C98.1095 6.52083 101.516 7.30208 104.557 8.73437L119.026 0V11.8177L150.182 5.10417V14.0365L180.453 10.8542V18.5104L188.797 18.0469V42.4427L180.453 41.9531V49.6198L150.182 46.4375V55.3698L119.026 48.651V60.4688L104.557 51.724C101.516 53.1667 98.1095 53.9531 94.521 53.9531C91.0002 53.9531 87.646 53.1823 84.646 51.8073ZM94.521 13.9896C103.495 13.9896 110.755 21.2552 110.755 30.2292C110.755 39.1979 103.49 46.4792 94.521 46.4792C85.547 46.4792 78.2866 39.2031 78.2866 30.2292C78.2866 21.2552 85.547 13.9896 94.521 13.9896ZM94.521 10.8906C99.8647 10.8906 104.698 13.0521 108.193 16.5573C111.698 20.0625 113.87 24.8854 113.87 30.2292C113.87 35.5677 111.698 40.4063 108.193 43.9115C104.698 47.4063 99.8647 49.5781 94.521 49.5781C89.1772 49.5781 84.3543 47.4063 80.8335 43.9115C77.3439 40.4063 75.1877 35.5677 75.1877 30.2292C75.1877 24.8854 77.3439 20.0625 80.8335 16.5573C84.3543 13.0521 89.1772 10.8906 94.521 10.8906ZM107.151 17.599C103.912 14.375 99.4533 12.3698 94.5158 12.3698C89.5835 12.3698 85.12 14.375 81.8804 17.599C78.6408 20.8385 76.6512 25.3073 76.6512 30.2292C76.6512 35.1667 78.646 39.6354 81.8804 42.8646C85.12 46.1042 89.5783 48.0938 94.5158 48.0938C99.4533 48.0938 103.912 46.1042 107.151 42.8646C110.375 39.6406 112.38 35.1719 112.38 30.2292C112.386 25.3073 110.375 20.8385 107.151 17.599ZM81.6616 10.2917L73.2658 5.23437V12.4635L77.7762 13.4167C78.9533 12.2552 80.2606 11.2031 81.6616 10.2917ZM75.5627 15.9687L42.1095 8.74479V14.3385L74.3595 17.75C74.7345 17.1354 75.1408 16.5469 75.5627 15.9687ZM72.8543 20.5521L11.8387 14.1198V18.6927C31.9585 19.8385 52.0783 20.9896 72.2137 22.1563C72.4064 21.6042 72.62 21.0729 72.8543 20.5521ZM71.3595 25.0573L3.49495 21.1563V39.3177L71.3595 35.4167C70.995 33.75 70.797 32.0104 70.797 30.2292C70.797 28.4531 70.995 26.7083 71.3595 25.0573ZM72.2137 38.3177C52.0783 39.4688 31.9585 40.6198 11.8387 41.7813V46.3438L72.8595 39.9219C72.62 39.401 72.4064 38.8646 72.2137 38.3177ZM74.3595 42.7344L42.1095 46.1146V51.7083L75.5627 44.5C75.1408 43.9271 74.7345 43.3385 74.3595 42.7344ZM77.7762 47.0417L73.2658 48.0104V55.2396L81.6616 50.1667C80.2606 49.2552 78.9533 48.2188 77.7762 47.0417ZM107.516 10.3906C108.875 11.2917 110.151 12.3125 111.292 13.4635L111.318 13.4896L116.073 12.4635V5.23437L107.516 10.3906ZM113.516 16.0104C113.938 16.5885 114.328 17.1771 114.708 17.7656L147.224 14.3437V8.75L113.516 16.0104ZM116.198 20.5677C116.422 21.1042 116.63 21.6354 116.839 22.1667C137.057 21.0156 157.276 19.8542 177.505 18.6927V14.1198L116.198 20.5677ZM117.667 25.0677C118.047 26.7344 118.245 28.4635 118.245 30.2292C118.245 32.0104 118.047 33.7344 117.667 35.401L185.849 39.3125V21.1563L117.667 25.0677ZM116.839 38.3021C116.63 38.8385 116.422 39.3698 116.198 39.8906L177.511 46.3385V41.7813C157.276 40.6198 137.063 39.4688 116.839 38.3021ZM114.708 42.6927C114.328 43.2969 113.938 43.8854 113.516 44.4479L147.224 51.7135V46.1198L114.708 42.6927ZM111.318 46.9844L111.292 47.0104C110.151 48.151 108.875 49.1875 107.516 50.0833L116.068 55.2396V48.0104L111.318 46.9844ZM109.198 15.5469C105.443 11.7917 100.255 9.46354 94.521 9.46354C88.7866 9.46354 83.5991 11.7917 79.8439 15.5469C76.0835 19.3073 73.7397 24.4948 73.7397 30.2292C73.7397 35.9635 76.0835 41.1615 79.8439 44.9219C83.5991 48.6771 88.7866 50.9948 94.521 50.9948C100.255 50.9948 105.443 48.6771 109.198 44.9219C112.958 41.1615 115.281 35.9635 115.281 30.2292C115.281 24.4948 112.958 19.3073 109.198 15.5469Z" fill="#CD9C4F"/>
<path d="M84.646 51.8073L70.3022 60.474V48.6563L39.1668 55.3698V46.4375L8.88037 49.6146V41.9531L0.536621 42.4427V18.0469L8.88037 18.5104V10.8542L39.1668 14.0365V5.10417L70.3075 11.8177V0L84.6512 8.65104C87.6512 7.27604 91.0002 6.52083 94.521 6.52083C98.1095 6.52083 101.516 7.30208 104.557 8.73437L119.026 0V11.8177L150.182 5.10417V14.0365L180.453 10.8542V18.5104L188.797 18.0469V42.4427L180.453 41.9531V49.6198L150.182 46.4375V55.3698L119.026 48.651V60.4688L104.557 51.724C101.516 53.1667 98.1095 53.9531 94.521 53.9531C91.0002 53.9531 87.646 53.1823 84.646 51.8073ZM94.521 13.9896C103.495 13.9896 110.755 21.2552 110.755 30.2292C110.755 39.1979 103.49 46.4792 94.521 46.4792C85.547 46.4792 78.2866 39.2031 78.2866 30.2292C78.2866 21.2552 85.547 13.9896 94.521 13.9896ZM94.521 10.8906C99.8647 10.8906 104.698 13.0521 108.193 16.5573C111.698 20.0625 113.87 24.8854 113.87 30.2292C113.87 35.5677 111.698 40.4063 108.193 43.9115C104.698 47.4063 99.8647 49.5781 94.521 49.5781C89.1772 49.5781 84.3543 47.4063 80.8335 43.9115C77.3439 40.4063 75.1877 35.5677 75.1877 30.2292C75.1877 24.8854 77.3439 20.0625 80.8335 16.5573C84.3543 13.0521 89.1772 10.8906 94.521 10.8906ZM107.151 17.599C103.912 14.375 99.4533 12.3698 94.5158 12.3698C89.5835 12.3698 85.12 14.375 81.8804 17.599C78.6408 20.8385 76.6512 25.3073 76.6512 30.2292C76.6512 35.1667 78.646 39.6354 81.8804 42.8646C85.12 46.1042 89.5783 48.0938 94.5158 48.0938C99.4533 48.0938 103.912 46.1042 107.151 42.8646C110.375 39.6406 112.38 35.1719 112.38 30.2292C112.386 25.3073 110.375 20.8385 107.151 17.599ZM81.6616 10.2917L73.2658 5.23437V12.4635L77.7762 13.4167C78.9533 12.2552 80.2606 11.2031 81.6616 10.2917ZM75.5627 15.9687L42.1095 8.74479V14.3385L74.3595 17.75C74.7345 17.1354 75.1408 16.5469 75.5627 15.9687ZM72.8543 20.5521L11.8387 14.1198V18.6927C31.9585 19.8385 52.0783 20.9896 72.2137 22.1563C72.4064 21.6042 72.62 21.0729 72.8543 20.5521ZM71.3595 25.0573L3.49495 21.1563V39.3177L71.3595 35.4167C70.995 33.75 70.797 32.0104 70.797 30.2292C70.797 28.4531 70.995 26.7083 71.3595 25.0573ZM72.2137 38.3177C52.0783 39.4688 31.9585 40.6198 11.8387 41.7813V46.3438L72.8595 39.9219C72.62 39.401 72.4064 38.8646 72.2137 38.3177ZM74.3595 42.7344L42.1095 46.1146V51.7083L75.5627 44.5C75.1408 43.9271 74.7345 43.3385 74.3595 42.7344ZM77.7762 47.0417L73.2658 48.0104V55.2396L81.6616 50.1667C80.2606 49.2552 78.9533 48.2188 77.7762 47.0417ZM107.516 10.3906C108.875 11.2917 110.151 12.3125 111.292 13.4635L111.318 13.4896L116.073 12.4635V5.23437L107.516 10.3906ZM113.516 16.0104C113.938 16.5885 114.328 17.1771 114.708 17.7656L147.224 14.3437V8.75L113.516 16.0104ZM116.198 20.5677C116.422 21.1042 116.63 21.6354 116.839 22.1667C137.057 21.0156 157.276 19.8542 177.505 18.6927V14.1198L116.198 20.5677ZM117.667 25.0677C118.047 26.7344 118.245 28.4635 118.245 30.2292C118.245 32.0104 118.047 33.7344 117.667 35.401L185.849 39.3125V21.1563L117.667 25.0677ZM116.839 38.3021C116.63 38.8385 116.422 39.3698 116.198 39.8906L177.511 46.3385V41.7813C157.276 40.6198 137.063 39.4688 116.839 38.3021ZM114.708 42.6927C114.328 43.2969 113.938 43.8854 113.516 44.4479L147.224 51.7135V46.1198L114.708 42.6927ZM111.318 46.9844L111.292 47.0104C110.151 48.151 108.875 49.1875 107.516 50.0833L116.068 55.2396V48.0104L111.318 46.9844ZM109.198 15.5469C105.443 11.7917 100.255 9.46354 94.521 9.46354C88.7866 9.46354 83.5991 11.7917 79.8439 15.5469C76.0835 19.3073 73.7397 24.4948 73.7397 30.2292C73.7397 35.9635 76.0835 41.1615 79.8439 44.9219C83.5991 48.6771 88.7866 50.9948 94.521 50.9948C100.255 50.9948 105.443 48.6771 109.198 44.9219C112.958 41.1615 115.281 35.9635 115.281 30.2292C115.281 24.4948 112.958 19.3073 109.198 15.5469Z" fill="#CD9C4F"/>
</svg>

